<svg id="Calque_1" data-name="Calque 1" xmlns="http://www.w3.org/2000/svg" viewBox="0 0 125.4 125.89"><defs><style>.cls-1{fill:#fff;}</style></defs><path class="cls-1" d="M88.78,21.92a11.2,11.2,0,0,1,8.33,7.75,15,15,0,0,1,.53,4.44c0,1.22.25,1.89,1.54,2.23a27.53,27.53,0,0,1,3.94,1.55c2.38,1,2.38,1.07,4.26-.74a11.39,11.39,0,0,1,15.93-.25c2.14,2,4.21,4.06,6.18,6.21a11.22,11.22,0,0,1,2.66,10.64A12.42,12.42,0,0,1,128,60.18a1.08,1.08,0,0,0-.28,1.54c.75,1.53,1.42,3.1,2,4.68.89,2.24.86,2.26,3.22,2.29a11.31,11.31,0,0,1,10.81,7.09A21.47,21.47,0,0,1,144.62,90a5.18,5.18,0,0,0-.26.65,11.61,11.61,0,0,1-12.52,8.9c-1.05-.07-1.47.33-1.78,1.28-.46,1.43-1,2.81-1.64,4.19-1,2.39-1,2.38.75,4.27a11.4,11.4,0,0,1,.4,15.77c-2,2.26-4.21,4.41-6.45,6.46a11.1,11.1,0,0,1-10.52,2.58,12.38,12.38,0,0,1-6.42-4.19,1.08,1.08,0,0,0-1.53-.28,34.79,34.79,0,0,1-5.25,2.21c-1.46.43-1.81,1.13-1.75,2.57a11,11,0,0,1-5.33,10.4,25.91,25.91,0,0,1-4.18,1.79,51.93,51.93,0,0,1-11.69,0c-.41-.15-.81-.32-1.22-.44a11.41,11.41,0,0,1-7.11-5.87,12.33,12.33,0,0,1-1.2-6.62A1.38,1.38,0,0,0,65.76,132a44.91,44.91,0,0,1-4.29-1.69c-2.39-1-2.39-1.05-4.26.76a11.34,11.34,0,0,1-15.74.39,87.73,87.73,0,0,1-6.53-6.55,11.07,11.07,0,0,1-2.58-10.09,12.39,12.39,0,0,1,4.26-6.78,1.09,1.09,0,0,0,.29-1.54,17.88,17.88,0,0,1-1.75-4c-.55-2.4-1.75-3.09-4.24-3.1A11.14,11.14,0,0,1,20,88.08c0-2.64,0-5.29,0-7.93a11.15,11.15,0,0,1,7.53-10.7,17.27,17.27,0,0,1,5.13-.7,1.72,1.72,0,0,0,1.94-1.44c.39-1.31,1-2.57,1.49-3.84.36-.86,1.18-1.78,1-2.52s-1.2-1.45-1.86-2.15a11.39,11.39,0,0,1-.38-15.4,83,83,0,0,1,6.89-6.89,10.9,10.9,0,0,1,9.77-2.44,12.18,12.18,0,0,1,6.8,4.21,1.21,1.21,0,0,0,1.73.32c1.59-.8,3.25-1.47,4.9-2.12,1.91-.76,2-.73,1.94-2.86a10.88,10.88,0,0,1,4.21-9.28c1.56-1.19,3.55-1.8,5.35-2.67A24.5,24.5,0,0,1,88.78,21.92Zm20.57,62.15a27.06,27.06,0,1,0-27,27.16A27,27,0,0,0,109.35,84.07Z" transform="translate(-19.96 -21.01)"/></svg>