<svg id="Calque_1" data-name="Calque 1" xmlns="http://www.w3.org/2000/svg" viewBox="0 0 94.84 82.35"><defs><style>.cls-1{fill:#fff;}</style></defs><path class="cls-1" d="M27.54,103c.28-1.09.49-2.21.85-3.28a22.07,22.07,0,0,1,7.45-10,48.91,48.91,0,0,1,18.31-8.88c2.63-.72,5.31-1.26,8.06-1.9C52.73,72.87,48,64.27,48.91,53a25.66,25.66,0,0,1,9.55-18,26.72,26.72,0,0,1,37.61,3.55,25.85,25.85,0,0,1,5.71,21.9c-1.46,8.1-6,14.16-13,18.44l10.41,2.46,0,.27a18.08,18.08,0,0,0-8.08,10.07,17.53,17.53,0,0,0,.83,13c-.33,0-.56.08-.79.08H28.09l-.55,0Z" transform="translate(-27.54 -28.89)"/><path class="cls-1" d="M108.24,111.24a14.1,14.1,0,1,1,14.13-13.88A14.06,14.06,0,0,1,108.24,111.24ZM110.74,88H105.8v6.68H99.13v4.93h6.7v6.65h4.94v-6.7h6.61V94.65h-6.64Z" transform="translate(-27.54 -28.89)"/></svg>