<svg width="111" height="54" viewBox="0 0 111 54" fill="none" xmlns="http://www.w3.org/2000/svg">
<path d="M2.72471 25.6501C2.8327 25.5421 2.86871 25.4341 2.86871 25.3621C2.86871 25.2541 2.79671 25.1461 2.6887 25.0741C2.54471 25.0021 1.3207 24.8581 1.3207 24.6061C1.3207 24.4621 1.5367 24.3181 2.1487 24.1741C3.12071 23.9221 4.12871 23.8501 5.10071 23.8501C9.81671 23.8501 13.8487 24.6781 18.0967 26.2981C24.1447 28.6021 32.2447 33.4981 32.2447 39.8341C32.2447 46.2421 24.0367 46.9261 20.0767 46.9261C19.1767 46.9261 17.7727 46.8541 16.6207 46.1341L16.5847 38.2501C16.8727 38.2141 17.0527 38.2141 17.5207 38.2141C20.3647 38.2141 24.2527 39.2221 24.9727 40.0861C24.7567 40.5541 23.9647 41.0941 23.4247 41.7061C23.7847 41.9941 24.5767 42.1741 25.0087 42.1741C26.2327 42.1741 27.4927 40.5541 27.4927 39.6901C27.4927 36.0541 19.7887 35.4061 17.2687 35.4061H16.7647C16.6567 34.6141 16.6207 33.8581 16.5847 33.1381C16.4767 31.4821 16.3327 30.3661 15.0007 29.2861C14.1727 30.0061 13.8127 33.8581 13.7767 34.2181L13.7047 35.6941C10.1767 36.3061 8.01671 36.9901 6.32471 38.2501C5.49671 38.8261 5.13671 39.3301 5.13671 39.9061C5.13671 41.0221 6.07271 42.1741 6.90071 43.0381C7.87271 44.1541 9.99671 45.7741 13.2727 47.6821C13.4887 48.7981 13.6687 49.8421 14.2087 50.4901L15.0367 50.5621C15.5047 50.5621 15.8647 50.4901 16.2967 50.4181C16.5487 49.5901 16.6207 49.3021 16.7287 48.9061C18.3487 49.1581 20.3287 49.4461 21.9847 49.4461C28.5367 49.4461 35.5927 46.3141 35.5927 39.7621C35.5927 32.3461 24.7207 25.8661 19.3567 23.9221C15.8287 22.6621 11.6887 21.6541 8.44871 21.6541C5.96471 21.6541 0.132705 21.7981 0.132705 25.1101C0.132705 25.5781 1.06871 25.6861 1.86071 25.6861C2.25671 25.6861 2.58071 25.6501 2.72471 25.6501ZM13.2367 45.3061C11.5807 44.9461 9.85271 44.0821 8.70071 43.1461C7.69271 42.3901 6.03671 41.2021 6.03671 40.2301C6.03671 38.9701 9.99671 38.6101 13.5607 38.3221L13.2367 45.3061ZM44.2035 25.5781C43.9875 24.7861 42.7275 24.1741 41.1435 24.1741C37.7235 24.1741 34.1595 27.3421 34.1595 29.7181C34.1595 30.5101 34.5555 31.1581 35.0955 31.8781C35.0595 32.0581 34.9875 32.3101 34.9875 32.4901C35.0595 33.2821 35.5275 33.9661 35.8875 34.0381C36.4275 33.9661 36.5715 33.5701 36.9675 33.1021C37.6155 33.3181 38.5155 33.4261 39.2355 33.4261C41.6115 33.4261 46.3635 30.2581 46.3635 27.4861C46.3635 26.1541 44.9595 25.5421 44.3475 25.5421C44.2755 25.5421 44.2395 25.5781 44.2035 25.5781ZM37.9395 35.4781C37.7955 35.4781 37.7595 35.5501 37.7235 35.7301C37.2555 39.3661 37.1475 41.3461 37.1115 41.8501C37.0395 43.7581 37.0035 43.7941 37.0035 45.6301C37.0395 45.9901 37.2555 47.3941 37.7235 47.5381C38.0115 47.6461 38.4435 47.7541 38.7315 47.7541C39.6315 47.7541 39.8475 47.0701 39.8475 46.4941C39.8475 43.6141 39.5595 40.5541 39.4875 37.6381C39.4155 36.2701 39.2355 35.5141 37.9395 35.4781ZM38.0835 31.0141C39.5595 28.9981 41.6115 26.9821 43.6995 26.9821C44.6355 26.9821 44.6355 27.3781 44.6355 27.8821C44.6355 30.0781 40.9635 31.3021 39.1635 31.3021H38.3715C38.2635 31.3021 38.0835 31.0861 38.0835 31.0141ZM35.9235 29.7181C36.0675 28.3141 37.1835 26.9821 38.9835 26.6221C39.0555 26.6941 39.0555 26.7661 39.0555 26.8021V26.8381C38.2275 27.6301 36.7155 29.0701 36.2475 29.7181C36.2115 29.7541 36.1395 29.7901 36.0675 29.7901C35.9955 29.7901 35.9595 29.7541 35.9235 29.7181ZM49.2775 46.4941C49.6375 46.9621 51.0775 48.3661 51.3655 48.3661C52.4455 48.3661 52.9855 47.1421 52.9855 45.6661C52.9855 45.0901 52.9135 44.4061 52.7335 43.8301C52.4815 44.7301 52.3015 45.1621 51.6535 45.1621C50.5375 45.1621 49.0975 42.1021 48.1975 40.7341C48.7375 39.7621 49.2415 39.0061 49.8175 38.4661C50.4655 37.9261 51.0775 37.3501 51.6175 37.3501C51.8335 37.3501 52.0495 37.4221 52.1935 37.6741C52.0135 35.6581 51.5095 35.4781 50.8975 35.4781C50.2495 35.4781 49.4575 35.8741 48.4495 36.7381C47.8735 37.2421 47.3335 37.8541 46.8295 38.5381L45.3895 35.9461C45.1375 35.4061 44.8495 35.0101 44.5615 34.7221C43.7695 34.7221 43.0855 34.9021 42.4735 35.2981C42.3295 35.4421 42.2935 35.6581 42.2935 35.9101C42.2935 36.1621 42.3295 36.4141 42.4735 36.5941C43.4455 38.5021 43.9495 39.3301 45.2815 41.1661C44.3095 42.9661 43.4815 44.9821 43.0135 46.8541C42.9055 47.1781 42.8335 47.6461 42.8335 48.0421C42.8335 48.4741 42.9055 48.8341 43.1575 48.8341C43.8775 48.8341 44.9935 48.5101 45.3535 47.3221C45.6055 46.5301 46.1815 44.9461 46.8655 43.3261L49.2775 46.4941ZM60.6169 34.4341L60.7249 34.8661C61.6249 38.2501 62.3089 39.2221 62.3089 42.5341C62.3089 43.1461 62.3089 43.4701 62.0929 43.4701C62.0569 43.4701 61.9849 43.3261 61.8409 43.1821C59.9329 40.8061 57.7729 36.3061 56.6929 36.3061C55.1449 36.3061 54.2089 42.9301 54.2089 44.8021C54.2089 45.6661 54.4609 47.6461 55.6129 47.6461C56.4049 47.6461 56.5849 46.4581 56.6929 45.9541C56.8729 44.8381 56.9449 41.0581 57.0529 40.6261C57.1249 40.3381 57.2329 40.2301 57.3049 40.2301C57.8089 40.2301 60.0049 46.9261 62.0929 46.9261C63.8569 46.9261 64.8649 44.2981 64.8649 42.1021C64.8649 37.0981 61.9849 33.5341 60.9769 33.5341C60.6529 33.5341 60.6169 34.0021 60.6169 34.2901V34.4341ZM74.586 45.4141C74.586 44.9461 74.118 44.3341 73.686 44.3341C73.326 44.3341 72.858 44.3701 72.498 44.4061C70.194 44.6221 68.826 44.9821 68.646 44.9821C69.006 44.1901 69.33 43.3261 69.51 42.5701C69.582 42.4261 69.654 42.4261 69.726 42.4261C71.526 42.4261 73.146 42.3541 73.794 42.3181C74.118 42.2821 74.19 41.7421 74.19 41.4541C74.19 41.1301 74.154 40.6621 73.974 40.4101L73.47 40.3381H70.806C70.554 40.3381 70.482 40.1221 70.482 39.9781C70.482 39.0781 70.77 38.6101 70.914 38.4661C71.094 38.4301 71.274 38.4301 71.454 38.4301C72.426 38.3941 72.786 38.4301 74.334 38.3221C75.018 38.2861 76.278 37.8901 76.278 37.5301C76.278 36.9181 75.45 36.1621 75.126 35.7661C74.37 35.5501 73.974 35.5141 73.65 35.5141C70.698 35.5141 68.934 36.1621 67.422 36.2341C66.81 36.2701 66.486 36.3781 66.486 36.7741C66.486 37.5301 67.71 37.9981 68.538 38.3941L67.674 40.3741C67.35 40.4101 67.026 40.5541 66.738 40.6621C66.666 40.9501 66.558 41.0941 66.558 41.3821C66.558 41.7421 66.738 41.9581 66.846 42.3181C66.45 43.4341 65.946 44.5501 65.946 45.3781C65.946 46.9261 66.846 48.4021 68.826 48.4021C71.202 48.4021 73.398 46.7101 74.37 45.9541C74.55 45.8461 74.586 45.6301 74.586 45.4141ZM83.5028 47.2501C84.2228 47.1781 84.8708 47.0701 85.5548 47.0701C85.8068 47.0701 86.0948 47.0701 86.3468 47.1061H86.4188C87.3548 47.1061 87.7868 46.4221 87.7868 45.7741C87.7868 45.1261 87.3908 44.5141 86.5268 44.4781C86.1668 44.4421 85.8788 44.4421 85.5548 44.4421C84.0788 44.4421 82.6748 44.7301 81.1988 44.8381C83.6828 42.4621 86.5628 40.1221 86.9948 36.6301L86.9228 35.9461C86.8508 35.2621 86.3108 34.8301 85.6988 34.8301C85.4828 34.8301 85.2668 34.9021 85.0868 34.9741C84.0068 35.5141 83.0708 35.6581 82.1348 35.6581C80.5148 35.6581 78.9668 35.0821 77.0228 34.9741C76.9508 35.2261 76.9148 35.5141 76.9148 35.6941C76.9148 37.6741 80.2988 38.2141 82.0628 38.2141C82.5668 38.2141 83.2148 38.1061 83.7908 37.9261C82.0628 40.6621 79.3628 42.7501 77.4188 45.2701C77.1668 45.5581 77.0228 45.8821 77.0228 46.2061C77.0228 46.7821 77.4548 47.3221 78.1748 47.4661C78.7508 47.5381 79.2908 47.5741 79.8308 47.5741C81.0188 47.5741 82.2428 47.3581 83.5028 47.2501Z" fill="white"/>
<path d="M109.319 41.0307H102.808C102.777 43.0746 102.47 45.1332 102.168 47.2066C102.122 47.5301 101.835 47.7653 101.497 47.7653H100.513C100.098 47.7653 99.7807 47.4124 99.8422 47.0154C100.17 44.898 100.462 42.8835 100.442 41.0307H94.2332C93.8592 41.0307 93.5519 40.7415 93.5519 40.3788V39.4132C93.5519 39.0554 93.8541 38.7613 94.2332 38.7613H100.452C100.534 36.7272 100.375 34.747 99.9293 32.8305C99.832 32.4188 100.15 32.0267 100.59 32.0267H101.543C101.86 32.0267 102.142 32.2374 102.209 32.5364C102.649 34.5215 102.834 36.6047 102.818 38.7613H109.324C109.698 38.7613 110.005 39.0505 110.005 39.4132V40.3788C110.005 40.7366 109.703 41.0307 109.324 41.0307H109.319Z" fill="white"/>
<path d="M27.9107 18.0334C34.9284 8.60298 47.2632 2.34869 61.3089 2.34869C79.4116 2.34869 94.6764 12.7447 99.3788 26.9296" stroke="url(#paint0_linear_2_19)" stroke-width="4" stroke-miterlimit="5" stroke-linecap="round"/>
<defs>
<linearGradient id="paint0_linear_2_19" x1="100.398" y1="14.6416" x2="26.8862" y2="14.6416" gradientUnits="userSpaceOnUse">
<stop stop-color="white"/>
<stop offset="0.08" stop-color="#FAFDFF"/>
<stop offset="0.16" stop-color="#EEFAFF"/>
<stop offset="0.24" stop-color="#D9F3FF"/>
<stop offset="0.33" stop-color="#BBEBFF"/>
<stop offset="0.41" stop-color="#95DFFF"/>
<stop offset="0.5" stop-color="#67D2FF"/>
<stop offset="0.54" stop-color="#4FCBFF"/>
<stop offset="0.94" stop-color="#1930FF"/>
<stop offset="1" stop-color="#0D1A40"/>
</linearGradient>
</defs>
</svg>
