<svg width="114" height="54" viewBox="0 0 114 54" fill="none" xmlns="http://www.w3.org/2000/svg">
<path d="M3.452 25.932C3.56 25.824 3.596 25.716 3.596 25.644C3.596 25.536 3.524 25.428 3.416 25.356C3.272 25.284 2.048 25.14 2.048 24.888C2.048 24.744 2.264 24.6 2.876 24.456C3.848 24.204 4.856 24.132 5.828 24.132C10.544 24.132 14.576 24.96 18.824 26.58C24.872 28.884 32.972 33.78 32.972 40.116C32.972 46.524 24.764 47.208 20.804 47.208C19.904 47.208 18.5 47.136 17.348 46.416L17.312 38.532C17.6 38.496 17.78 38.496 18.248 38.496C21.092 38.496 24.98 39.504 25.7 40.368C25.484 40.836 24.692 41.376 24.152 41.988C24.512 42.276 25.304 42.456 25.736 42.456C26.96 42.456 28.22 40.836 28.22 39.972C28.22 36.336 20.516 35.688 17.996 35.688H17.492C17.384 34.896 17.348 34.14 17.312 33.42C17.204 31.764 17.06 30.648 15.728 29.568C14.9 30.288 14.54 34.14 14.504 34.5L14.432 35.976C10.904 36.588 8.744 37.272 7.052 38.532C6.224 39.108 5.864 39.612 5.864 40.188C5.864 41.304 6.8 42.456 7.628 43.32C8.6 44.436 10.724 46.056 14 47.964C14.216 49.08 14.396 50.124 14.936 50.772L15.764 50.844C16.232 50.844 16.592 50.772 17.024 50.7C17.276 49.872 17.348 49.584 17.456 49.188C19.076 49.44 21.056 49.728 22.712 49.728C29.264 49.728 36.32 46.596 36.32 40.044C36.32 32.628 25.448 26.148 20.084 24.204C16.556 22.944 12.416 21.936 9.176 21.936C6.692 21.936 0.86 22.08 0.86 25.392C0.86 25.86 1.796 25.968 2.588 25.968C2.984 25.968 3.308 25.932 3.452 25.932ZM13.964 45.588C12.308 45.228 10.58 44.364 9.428 43.428C8.42 42.672 6.764 41.484 6.764 40.512C6.764 39.252 10.724 38.892 14.288 38.604L13.964 45.588ZM44.9308 25.86C44.7148 25.068 43.4548 24.456 41.8708 24.456C38.4508 24.456 34.8867 27.624 34.8867 30C34.8867 30.792 35.2827 31.44 35.8227 32.16C35.7867 32.34 35.7147 32.592 35.7147 32.772C35.7867 33.564 36.2548 34.248 36.6148 34.32C37.1548 34.248 37.2988 33.852 37.6948 33.384C38.3428 33.6 39.2428 33.708 39.9628 33.708C42.3388 33.708 47.0908 30.54 47.0908 27.768C47.0908 26.436 45.6868 25.824 45.0748 25.824C45.0028 25.824 44.9668 25.86 44.9308 25.86ZM38.6668 35.76C38.5228 35.76 38.4868 35.832 38.4508 36.012C37.9828 39.648 37.8748 41.628 37.8388 42.132C37.7668 44.04 37.7308 44.076 37.7308 45.912C37.7668 46.272 37.9828 47.676 38.4508 47.82C38.7388 47.928 39.1708 48.036 39.4588 48.036C40.3588 48.036 40.5748 47.352 40.5748 46.776C40.5748 43.896 40.2868 40.836 40.2148 37.92C40.1428 36.552 39.9628 35.796 38.6668 35.76ZM38.8108 31.296C40.2868 29.28 42.3388 27.264 44.4268 27.264C45.3628 27.264 45.3628 27.66 45.3628 28.164C45.3628 30.36 41.6908 31.584 39.8908 31.584H39.0988C38.9908 31.584 38.8108 31.368 38.8108 31.296ZM36.6508 30C36.7948 28.596 37.9108 27.264 39.7108 26.904C39.7828 26.976 39.7828 27.048 39.7828 27.084V27.12C38.9548 27.912 37.4428 29.352 36.9748 30C36.9388 30.036 36.8668 30.072 36.7948 30.072C36.7228 30.072 36.6868 30.036 36.6508 30ZM50.0048 46.776C50.3648 47.244 51.8048 48.648 52.0928 48.648C53.1728 48.648 53.7128 47.424 53.7128 45.948C53.7128 45.372 53.6408 44.688 53.4608 44.112C53.2088 45.012 53.0288 45.444 52.3808 45.444C51.2648 45.444 49.8248 42.384 48.9248 41.016C49.4648 40.044 49.9688 39.288 50.5448 38.748C51.1928 38.208 51.8048 37.632 52.3448 37.632C52.5608 37.632 52.7768 37.704 52.9208 37.956C52.7408 35.94 52.2368 35.76 51.6248 35.76C50.9768 35.76 50.1848 36.156 49.1768 37.02C48.6008 37.524 48.0608 38.136 47.5568 38.82L46.1168 36.228C45.8648 35.688 45.5768 35.292 45.2888 35.004C44.4968 35.004 43.8128 35.184 43.2008 35.58C43.0568 35.724 43.0208 35.94 43.0208 36.192C43.0208 36.444 43.0568 36.696 43.2008 36.876C44.1728 38.784 44.6768 39.612 46.0088 41.448C45.0368 43.248 44.2088 45.264 43.7408 47.136C43.6328 47.46 43.5608 47.928 43.5608 48.324C43.5608 48.756 43.6328 49.116 43.8848 49.116C44.6048 49.116 45.7208 48.792 46.0808 47.604C46.3328 46.812 46.9088 45.228 47.5928 43.608L50.0048 46.776ZM61.3442 34.716L61.4522 35.148C62.3522 38.532 63.0362 39.504 63.0362 42.816C63.0362 43.428 63.0362 43.752 62.8202 43.752C62.7842 43.752 62.7122 43.608 62.5682 43.464C60.6602 41.088 58.5002 36.588 57.4202 36.588C55.8722 36.588 54.9362 43.212 54.9362 45.084C54.9362 45.948 55.1882 47.928 56.3402 47.928C57.1322 47.928 57.3122 46.74 57.4202 46.236C57.6002 45.12 57.6722 41.34 57.7802 40.908C57.8522 40.62 57.9602 40.512 58.0322 40.512C58.5362 40.512 60.7322 47.208 62.8202 47.208C64.5842 47.208 65.5922 44.58 65.5922 42.384C65.5922 37.38 62.7122 33.816 61.7042 33.816C61.3802 33.816 61.3442 34.284 61.3442 34.572V34.716ZM75.3133 45.696C75.3133 45.228 74.8453 44.616 74.4133 44.616C74.0533 44.616 73.5853 44.652 73.2253 44.688C70.9213 44.904 69.5533 45.264 69.3733 45.264C69.7333 44.472 70.0573 43.608 70.2373 42.852C70.3093 42.708 70.3813 42.708 70.4533 42.708C72.2533 42.708 73.8733 42.636 74.5213 42.6C74.8453 42.564 74.9173 42.024 74.9173 41.736C74.9173 41.412 74.8813 40.944 74.7013 40.692L74.1973 40.62H71.5333C71.2813 40.62 71.2093 40.404 71.2093 40.26C71.2093 39.36 71.4973 38.892 71.6413 38.748C71.8213 38.712 72.0013 38.712 72.1813 38.712C73.1533 38.676 73.5133 38.712 75.0613 38.604C75.7453 38.568 77.0053 38.172 77.0053 37.812C77.0053 37.2 76.1773 36.444 75.8533 36.048C75.0973 35.832 74.7013 35.796 74.3773 35.796C71.4253 35.796 69.6613 36.444 68.1493 36.516C67.5373 36.552 67.2133 36.66 67.2133 37.056C67.2133 37.812 68.4373 38.28 69.2653 38.676L68.4013 40.656C68.0773 40.692 67.7533 40.836 67.4653 40.944C67.3933 41.232 67.2853 41.376 67.2853 41.664C67.2853 42.024 67.4653 42.24 67.5733 42.6C67.1773 43.716 66.6733 44.832 66.6733 45.66C66.6733 47.208 67.5733 48.684 69.5533 48.684C71.9293 48.684 74.1253 46.992 75.0973 46.236C75.2773 46.128 75.3133 45.912 75.3133 45.696ZM84.2301 47.532C84.9501 47.46 85.5981 47.352 86.2821 47.352C86.5341 47.352 86.8221 47.352 87.0741 47.388H87.1461C88.0821 47.388 88.5141 46.704 88.5141 46.056C88.5141 45.408 88.1181 44.796 87.2541 44.76C86.8941 44.724 86.6061 44.724 86.2821 44.724C84.8061 44.724 83.4021 45.012 81.9261 45.12C84.4101 42.744 87.2901 40.404 87.7221 36.912L87.6501 36.228C87.5781 35.544 87.0381 35.112 86.4261 35.112C86.2101 35.112 85.9941 35.184 85.8141 35.256C84.7341 35.796 83.7981 35.94 82.8621 35.94C81.2421 35.94 79.6941 35.364 77.7501 35.256C77.6781 35.508 77.6421 35.796 77.6421 35.976C77.6421 37.956 81.0261 38.496 82.7901 38.496C83.2941 38.496 83.9421 38.388 84.5181 38.208C82.7901 40.944 80.0901 43.032 78.1461 45.552C77.8941 45.84 77.7501 46.164 77.7501 46.488C77.7501 47.064 78.1821 47.604 78.9021 47.748C79.4781 47.82 80.0181 47.856 80.5581 47.856C81.7461 47.856 82.9701 47.64 84.2301 47.532Z" fill="#0D1A40"/>
<path d="M112.319 41.0307H105.808C105.777 43.0746 105.47 45.1332 105.168 47.2066C105.122 47.5301 104.835 47.7653 104.497 47.7653H103.513C103.098 47.7653 102.781 47.4124 102.842 47.0154C103.17 44.898 103.462 42.8835 103.442 41.0307H97.2332C96.8592 41.0307 96.5519 40.7415 96.5519 40.3788V39.4132C96.5519 39.0554 96.8541 38.7613 97.2332 38.7613H103.452C103.534 36.7272 103.375 34.747 102.929 32.8305C102.832 32.4188 103.15 32.0267 103.59 32.0267H104.543C104.86 32.0267 105.142 32.2374 105.209 32.5364C105.649 34.5215 105.834 36.6047 105.818 38.7613H112.324C112.698 38.7613 113.005 39.0505 113.005 39.4132V40.3788C113.005 40.7366 112.703 41.0307 112.324 41.0307H112.319Z" fill="#0D1A40"/>
<path d="M31.8198 18.665C38.8375 9.23457 51.1723 2.98029 65.218 2.98029C83.3207 2.98029 98.5855 13.3763 103.288 27.5612" stroke="url(#paint0_linear_12_533)" stroke-width="4" stroke-miterlimit="5" stroke-linecap="round"/>
<defs>
<linearGradient id="paint0_linear_12_533" x1="30.7953" y1="15.2732" x2="104.307" y2="15.2732" gradientUnits="userSpaceOnUse">
<stop stop-color="white"/>
<stop offset="0.08" stop-color="#FAFDFF"/>
<stop offset="0.16" stop-color="#EEFAFF"/>
<stop offset="0.24" stop-color="#D9F3FF"/>
<stop offset="0.33" stop-color="#BBEBFF"/>
<stop offset="0.41" stop-color="#95DFFF"/>
<stop offset="0.5" stop-color="#67D2FF"/>
<stop offset="0.54" stop-color="#4FCBFF"/>
<stop offset="0.94" stop-color="#1930FF"/>
<stop offset="1" stop-color="#0D1A40"/>
</linearGradient>
</defs>
</svg>
